<svg xmlns="http://www.w3.org/2000/svg" version="1.1" width="258.0" height="293.0">
<polygon points="129.0,128.0 129.0,138.3 137.0,134.3 137.0,124.0" style="fill:#333332" />
<polygon points="137.0,124.0 137.0,134.3 145.0,130.3 145.0,120.0" style="fill:#353535" />
<polygon points="145.0,120.0 145.0,130.3 153.0,126.3 153.0,116.0" style="fill:#2f2f32" />
<polygon points="153.0,116.0 153.0,126.3 161.0,122.3 161.0,112.0" style="fill:#2f2f2f" />
<polygon points="161.0,112.0 161.0,122.3 169.0,118.3 169.0,108.0" style="fill:#363637" />
<polygon points="169.0,108.0 169.0,118.3 177.0,114.3 177.0,104.0" style="fill:#3f3f40" />
<polygon points="177.0,104.0 177.0,114.3 185.0,110.3 185.0,100.0" style="fill:#2d2d2d" />
<polygon points="185.0,100.0 185.0,110.3 193.0,106.3 193.0,96.0" style="fill:#353536" />
<polygon points="193.0,96.0 193.0,106.3 201.0,102.3 201.0,92.0" style="fill:#333335" />
<polygon points="201.0,92.0 201.0,102.3 209.0,98.3 209.0,88.0" style="fill:#3a3a3c" />
<polygon points="209.0,88.0 209.0,98.3 217.0,94.3 217.0,84.0" style="fill:#2d2d30" />
<polygon points="217.0,84.0 217.0,94.3 225.0,90.3 225.0,80.0" style="fill:#353534" />
<polygon points="225.0,80.0 225.0,90.3 233.0,86.3 233.0,76.0" style="fill:#2e2e2b" />
<polygon points="233.0,76.0 233.0,86.3 241.0,82.3 241.0,72.0" style="fill:#282827" />
<polygon points="241.0,72.0 241.0,82.3 249.0,78.3 249.0,68.0" style="fill:#373739" />
<polygon points="249.0,68.0 249.0,78.3 257.0,74.3 257.0,64.0" style="fill:#424244" />
<polygon points="129.0,138.3 129.0,148.6 137.0,144.6 137.0,134.3" style="fill:#363635" />
<polygon points="137.0,134.3 137.0,144.6 145.0,140.6 145.0,130.3" style="fill:#393a33" />
<polygon points="145.0,130.3 145.0,140.6 153.0,136.6 153.0,126.3" style="fill:#3a3a33" />
<polygon points="153.0,126.3 153.0,136.6 161.0,132.6 161.0,122.3" style="fill:#32322e" />
<polygon points="161.0,122.3 161.0,132.6 169.0,128.6 169.0,118.3" style="fill:#353536" />
<polygon points="169.0,118.3 169.0,128.6 177.0,124.600006 177.0,114.3" style="fill:#383739" />
<polygon points="177.0,114.3 177.0,124.600006 185.0,120.600006 185.0,110.3" style="fill:#3a3a3a" />
<polygon points="185.0,110.3 185.0,120.600006 193.0,116.600006 193.0,106.3" style="fill:#2c2c2d" />
<polygon points="193.0,106.3 193.0,116.600006 201.0,112.600006 201.0,102.3" style="fill:#2e2e2f" />
<polygon points="201.0,102.3 201.0,112.600006 209.0,108.600006 209.0,98.3" style="fill:#444443" />
<polygon points="209.0,98.3 209.0,108.600006 217.0,104.600006 217.0,94.3" style="fill:#2b2b2d" />
<polygon points="217.0,94.3 217.0,104.600006 225.0,100.600006 225.0,90.3" style="fill:#29292b" />
<polygon points="225.0,90.3 225.0,100.600006 233.0,96.600006 233.0,86.3" style="fill:#565751" />
<polygon points="233.0,86.3 233.0,96.600006 241.0,92.600006 241.0,82.3" style="fill:#525251" />
<polygon points="241.0,82.3 241.0,92.600006 249.0,88.600006 249.0,78.3" style="fill:#353532" />
<polygon points="249.0,78.3 249.0,88.600006 257.0,84.600006 257.0,74.3" style="fill:#323230" />
<polygon points="129.0,148.6 129.0,158.90001 137.0,154.90001 137.0,144.6" style="fill:#353537" />
<polygon points="137.0,144.6 137.0,154.90001 145.0,150.90001 145.0,140.6" style="fill:#474742" />
<polygon points="145.0,140.6 145.0,150.90001 153.0,146.90001 153.0,136.6" style="fill:#363635" />
<polygon points="153.0,136.6 153.0,146.90001 161.0,142.90001 161.0,132.6" style="fill:#484948" />
<polygon points="161.0,132.6 161.0,142.90001 169.0,138.90001 169.0,128.6" style="fill:#2a2a2e" />
<polygon points="169.0,128.6 169.0,138.90001 177.0,134.90001 177.0,124.600006" style="fill:#2d2d2f" />
<polygon points="177.0,124.600006 177.0,134.90001 185.0,130.90001 185.0,120.600006" style="fill:#373738" />
<polygon points="185.0,120.600006 185.0,130.90001 193.0,126.90001 193.0,116.600006" style="fill:#3f3f3f" />
<polygon points="193.0,116.600006 193.0,126.90001 201.0,122.90001 201.0,112.600006" style="fill:#3f3f41" />
<polygon points="201.0,112.600006 201.0,122.90001 209.0,118.90001 209.0,108.600006" style="fill:#2d2d2d" />
<polygon points="209.0,108.600006 209.0,118.90001 217.0,114.90001 217.0,104.600006" style="fill:#363638" />
<polygon points="217.0,104.600006 217.0,114.90001 225.0,110.90001 225.0,100.600006" style="fill:#474746" />
<polygon points="225.0,100.600006 225.0,110.90001 233.0,106.90001 233.0,96.600006" style="fill:#353539" />
<polygon points="233.0,96.600006 233.0,106.90001 241.0,102.90001 241.0,92.600006" style="fill:#393a3c" />
<polygon points="241.0,92.600006 241.0,102.90001 249.0,98.90001 249.0,88.600006" style="fill:#2a2a2e" />
<polygon points="249.0,88.600006 249.0,98.90001 257.0,94.90001 257.0,84.600006" style="fill:#353635" />
<polygon points="129.0,158.9 129.0,169.2 137.0,165.2 137.0,154.9" style="fill:#2f2f32" />
<polygon points="137.0,154.9 137.0,165.2 145.0,161.2 145.0,150.9" style="fill:#343336" />
<polygon points="145.0,150.9 145.0,161.2 153.0,157.2 153.0,146.9" style="fill:#292929" />
<polygon points="153.0,146.9 153.0,157.2 161.0,153.2 161.0,142.9" style="fill:#353536" />
<polygon points="161.0,142.9 161.0,153.2 169.0,149.2 169.0,138.9" style="fill:#353537" />
<polygon points="169.0,138.9 169.0,149.2 177.0,145.2 177.0,134.9" style="fill:#363638" />
<polygon points="177.0,134.9 177.0,145.2 185.0,141.2 185.0,130.9" style="fill:#323234" />
<polygon points="185.0,130.9 185.0,141.2 193.0,137.2 193.0,126.899994" style="fill:#2e2e2e" />
<polygon points="193.0,126.899994 193.0,137.2 201.0,133.2 201.0,122.899994" style="fill:#2f2f2f" />
<polygon points="201.0,122.899994 201.0,133.2 209.0,129.2 209.0,118.899994" style="fill:#494947" />
<polygon points="209.0,118.899994 209.0,129.2 217.0,125.2 217.0,114.899994" style="fill:#2d2d2c" />
<polygon points="217.0,114.899994 217.0,125.2 225.0,121.2 225.0,110.899994" style="fill:#363735" />
<polygon points="225.0,110.899994 225.0,121.2 233.0,117.2 233.0,106.899994" style="fill:#2f2f31" />
<polygon points="233.0,106.899994 233.0,117.2 241.0,113.2 241.0,102.899994" style="fill:#3a3a36" />
<polygon points="241.0,102.899994 241.0,113.2 249.0,109.2 249.0,98.899994" style="fill:#373736" />
<polygon points="249.0,98.899994 249.0,109.2 257.0,105.2 257.0,94.899994" style="fill:#353635" />
<polygon points="129.0,169.2 129.0,179.5 137.0,175.5 137.0,165.2" style="fill:#292929" />
<polygon points="137.0,165.2 137.0,175.5 145.0,171.5 145.0,161.2" style="fill:#2d2d2d" />
<polygon points="145.0,161.2 145.0,171.5 153.0,167.5 153.0,157.2" style="fill:#464747" />
<polygon points="153.0,157.2 153.0,167.5 161.0,163.5 161.0,153.2" style="fill:#343437" />
<polygon points="161.0,153.2 161.0,163.5 169.0,159.5 169.0,149.2" style="fill:#3d3d3f" />
<polygon points="169.0,149.2 169.0,159.5 177.0,155.5 177.0,145.2" style="fill:#353531" />
<polygon points="177.0,145.2 177.0,155.5 185.0,151.5 185.0,141.2" style="fill:#2e2e2a" />
<polygon points="185.0,141.2 185.0,151.5 193.0,147.5 193.0,137.2" style="fill:#4a4a43" />
<polygon points="193.0,137.2 193.0,147.5 201.0,143.5 201.0,133.2" style="fill:#4c4c47" />
<polygon points="201.0,133.2 201.0,143.5 209.0,139.5 209.0,129.2" style="fill:#343430" />
<polygon points="209.0,129.2 209.0,139.5 217.0,135.5 217.0,125.2" style="fill:#38383a" />
<polygon points="217.0,125.2 217.0,135.5 225.0,131.5 225.0,121.2" style="fill:#343437" />
<polygon points="225.0,121.2 225.0,131.5 233.0,127.5 233.0,117.2" style="fill:#414143" />
<polygon points="233.0,117.2 233.0,127.5 241.0,123.5 241.0,113.2" style="fill:#34343a" />
<polygon points="241.0,113.2 241.0,123.5 249.0,119.5 249.0,109.2" style="fill:#2d2d2f" />
<polygon points="249.0,109.2 249.0,119.5 257.0,115.5 257.0,105.2" style="fill:#2c2c2e" />
<polygon points="129.0,179.5 129.0,189.8 137.0,185.8 137.0,175.5" style="fill:#51514f" />
<polygon points="137.0,175.5 137.0,185.8 145.0,181.8 145.0,171.5" style="fill:#444444" />
<polygon points="145.0,171.5 145.0,181.8 153.0,177.8 153.0,167.5" style="fill:#292929" />
<polygon points="153.0,167.5 153.0,177.8 161.0,173.8 161.0,163.5" style="fill:#373739" />
<polygon points="161.0,163.5 161.0,173.8 169.0,169.8 169.0,159.5" style="fill:#2b2b2b" />
<polygon points="169.0,159.5 169.0,169.8 177.0,165.8 177.0,155.5" style="fill:#3c3d3d" />
<polygon points="177.0,155.5 177.0,165.8 185.0,161.8 185.0,151.5" style="fill:#484848" />
<polygon points="185.0,151.5 185.0,161.8 193.0,157.8 193.0,147.5" style="fill:#363638" />
<polygon points="193.0,147.5 193.0,157.8 201.0,153.8 201.0,143.5" style="fill:#37373a" />
<polygon points="201.0,143.5 201.0,153.8 209.0,149.8 209.0,139.5" style="fill:#343437" />
<polygon points="209.0,139.5 209.0,149.8 217.0,145.8 217.0,135.5" style="fill:#353533" />
<polygon points="217.0,135.5 217.0,145.8 225.0,141.8 225.0,131.5" style="fill:#373736" />
<polygon points="225.0,131.5 225.0,141.8 233.0,137.8 233.0,127.5" style="fill:#2d2d2c" />
<polygon points="233.0,127.5 233.0,137.8 241.0,133.8 241.0,123.5" style="fill:#2c2c2c" />
<polygon points="241.0,123.5 241.0,133.8 249.0,129.8 249.0,119.5" style="fill:#474744" />
<polygon points="249.0,119.5 249.0,129.8 257.0,125.8 257.0,115.5" style="fill:#454547" />
<polygon points="129.0,189.8 129.0,200.1 137.0,196.1 137.0,185.8" style="fill:#343435" />
<polygon points="137.0,185.8 137.0,196.1 145.0,192.1 145.0,181.8" style="fill:#29292c" />
<polygon points="145.0,181.8 145.0,192.1 153.0,188.1 153.0,177.8" style="fill:#373739" />
<polygon points="153.0,177.8 153.0,188.1 161.0,184.1 161.0,173.8" style="fill:#2a2a2a" />
<polygon points="161.0,173.8 161.0,184.1 169.0,180.1 169.0,169.8" style="fill:#454445" />
<polygon points="169.0,169.8 169.0,180.1 177.0,176.1 177.0,165.8" style="fill:#363638" />
<polygon points="177.0,165.8 177.0,176.1 185.0,172.1 185.0,161.8" style="fill:#38383a" />
<polygon points="185.0,161.8 185.0,172.1 193.0,168.1 193.0,157.8" style="fill:#373739" />
<polygon points="193.0,157.8 193.0,168.1 201.0,164.1 201.0,153.8" style="fill:#404044" />
<polygon points="201.0,153.8 201.0,164.1 209.0,160.1 209.0,149.8" style="fill:#3f3f44" />
<polygon points="209.0,149.8 209.0,160.1 217.0,156.1 217.0,145.8" style="fill:#2d2d2d" />
<polygon points="217.0,145.8 217.0,156.1 225.0,152.1 225.0,141.8" style="fill:#2a2a2d" />
<polygon points="225.0,141.8 225.0,152.1 233.0,148.1 233.0,137.8" style="fill:#464643" />
<polygon points="233.0,137.8 233.0,148.1 241.0,144.1 241.0,133.8" style="fill:#474741" />
<polygon points="241.0,133.8 241.0,144.1 249.0,140.1 249.0,129.8" style="fill:#333335" />
<polygon points="249.0,129.8 249.0,140.1 257.0,136.1 257.0,125.8" style="fill:#353537" />
<polygon points="129.0,200.1 129.0,210.40001 137.0,206.40001 137.0,196.1" style="fill:#373739" />
<polygon points="137.0,196.1 137.0,206.40001 145.0,202.40001 145.0,192.1" style="fill:#353537" />
<polygon points="145.0,192.1 145.0,202.40001 153.0,198.40001 153.0,188.1" style="fill:#373739" />
<polygon points="153.0,188.1 153.0,198.40001 161.0,194.40001 161.0,184.1" style="fill:#2d2e2d" />
<polygon points="161.0,184.1 161.0,194.40001 169.0,190.40001 169.0,180.1" style="fill:#3f3f3f" />
<polygon points="169.0,180.1 169.0,190.40001 177.0,186.40001 177.0,176.1" style="fill:#363638" />
<polygon points="177.0,176.1 177.0,186.40001 185.0,182.40001 185.0,172.1" style="fill:#373735" />
<polygon points="185.0,172.1 185.0,182.40001 193.0,178.40001 193.0,168.1" style="fill:#30302c" />
<polygon points="193.0,168.1 193.0,178.40001 201.0,174.40001 201.0,164.1" style="fill:#2e2e28" />
<polygon points="201.0,164.1 201.0,174.40001 209.0,170.40001 209.0,160.1" style="fill:#2c2c26" />
<polygon points="209.0,160.1 209.0,170.40001 217.0,166.40001 217.0,156.1" style="fill:#3a3a34" />
<polygon points="217.0,156.1 217.0,166.40001 225.0,162.40001 225.0,152.1" style="fill:#323232" />
<polygon points="225.0,152.1 225.0,162.40001 233.0,158.40001 233.0,148.1" style="fill:#2f2f32" />
<polygon points="233.0,148.1 233.0,158.40001 241.0,154.40001 241.0,144.1" style="fill:#2c2c2f" />
<polygon points="241.0,144.1 241.0,154.40001 249.0,150.40001 249.0,140.1" style="fill:#3a3a35" />
<polygon points="249.0,140.1 249.0,150.40001 257.0,146.40001 257.0,136.1" style="fill:#40403c" />
<polygon points="129.0,210.4 129.0,220.7 137.0,216.7 137.0,206.4" style="fill:#2d2d2c" />
<polygon points="137.0,206.4 137.0,216.7 145.0,212.7 145.0,202.4" style="fill:#343435" />
<polygon points="145.0,202.4 145.0,212.7 153.0,208.7 153.0,198.4" style="fill:#454542" />
<polygon points="153.0,198.4 153.0,208.7 161.0,204.7 161.0,194.4" style="fill:#373737" />
<polygon points="161.0,194.4 161.0,204.7 169.0,200.7 169.0,190.4" style="fill:#2b2b2a" />
<polygon points="169.0,190.4 169.0,200.7 177.0,196.7 177.0,186.4" style="fill:#2f2f30" />
<polygon points="177.0,186.4 177.0,196.7 185.0,192.7 185.0,182.4" style="fill:#2a2a27" />
<polygon points="185.0,182.4 185.0,192.7 193.0,188.7 193.0,178.4" style="fill:#484844" />
<polygon points="193.0,178.4 193.0,188.7 201.0,184.7 201.0,174.4" style="fill:#494945" />
<polygon points="201.0,174.4 201.0,184.7 209.0,180.7 209.0,170.4" style="fill:#3c3c3e" />
<polygon points="209.0,170.4 209.0,180.7 217.0,176.7 217.0,166.4" style="fill:#353532" />
<polygon points="217.0,166.4 217.0,176.7 225.0,172.7 225.0,162.4" style="fill:#2d2d2d" />
<polygon points="225.0,162.4 225.0,172.7 233.0,168.7 233.0,158.4" style="fill:#3a3a3a" />
<polygon points="233.0,158.4 233.0,168.7 241.0,164.7 241.0,154.4" style="fill:#353535" />
<polygon points="241.0,154.4 241.0,164.7 249.0,160.7 249.0,150.4" style="fill:#353536" />
<polygon points="249.0,150.4 249.0,160.7 257.0,156.7 257.0,146.4" style="fill:#2b2b2b" />
<polygon points="129.0,220.70001 129.0,231.00002 137.0,227.00002 137.0,216.70001" style="fill:#484945" />
<polygon points="137.0,216.70001 137.0,227.00002 145.0,223.00002 145.0,212.70001" style="fill:#353539" />
<polygon points="145.0,212.70001 145.0,223.00002 153.0,219.00002 153.0,208.70001" style="fill:#2d2d2e" />
<polygon points="153.0,208.70001 153.0,219.00002 161.0,215.00002 161.0,204.70001" style="fill:#2c2c2f" />
<polygon points="161.0,204.70001 161.0,215.00002 169.0,211.00002 169.0,200.70001" style="fill:#444446" />
<polygon points="169.0,200.70001 169.0,211.00002 177.0,207.00002 177.0,196.70001" style="fill:#4a4a4a" />
<polygon points="177.0,196.70001 177.0,207.00002 185.0,203.00002 185.0,192.70001" style="fill:#464647" />
<polygon points="185.0,192.70001 185.0,203.00002 193.0,199.00002 193.0,188.70001" style="fill:#2f2f32" />
<polygon points="193.0,188.70001 193.0,199.00002 201.0,195.00002 201.0,184.70001" style="fill:#37373a" />
<polygon points="201.0,184.70001 201.0,195.00002 209.0,191.00002 209.0,180.70001" style="fill:#353637" />
<polygon points="209.0,180.70001 209.0,191.00002 217.0,187.00002 217.0,176.70001" style="fill:#474847" />
<polygon points="217.0,176.70001 217.0,187.00002 225.0,183.00002 225.0,172.70001" style="fill:#363637" />
<polygon points="225.0,172.70001 225.0,183.00002 233.0,179.00002 233.0,168.70001" style="fill:#2d2d2d" />
<polygon points="233.0,168.70001 233.0,179.00002 241.0,175.00002 241.0,164.70001" style="fill:#3b3b3a" />
<polygon points="241.0,164.70001 241.0,175.00002 249.0,171.00002 249.0,160.70001" style="fill:#363636" />
<polygon points="249.0,160.70001 249.0,171.00002 257.0,167.00002 257.0,156.70001" style="fill:#3f4040" />
<polygon points="129.0,231.0 129.0,241.3 137.0,237.3 137.0,227.0" style="fill:#393936" />
<polygon points="137.0,227.0 137.0,237.3 145.0,233.3 145.0,223.0" style="fill:#38383a" />
<polygon points="145.0,223.0 145.0,233.3 153.0,229.3 153.0,219.0" style="fill:#3e3e41" />
<polygon points="153.0,219.0 153.0,229.3 161.0,225.3 161.0,215.0" style="fill:#444440" />
<polygon points="161.0,215.0 161.0,225.3 169.0,221.3 169.0,211.0" style="fill:#343333" />
<polygon points="169.0,211.0 169.0,221.3 177.0,217.3 177.0,207.0" style="fill:#353533" />
<polygon points="177.0,207.0 177.0,217.3 185.0,213.3 185.0,203.0" style="fill:#3e3e41" />
<polygon points="185.0,203.0 185.0,213.3 193.0,209.3 193.0,199.0" style="fill:#343433" />
<polygon points="193.0,199.0 193.0,209.3 201.0,205.3 201.0,195.0" style="fill:#2d2d30" />
<polygon points="201.0,195.0 201.0,205.3 209.0,201.3 209.0,191.0" style="fill:#2f2f2d" />
<polygon points="209.0,191.0 209.0,201.3 217.0,197.3 217.0,187.0" style="fill:#393935" />
<polygon points="217.0,187.0 217.0,197.3 225.0,193.3 225.0,183.0" style="fill:#29292c" />
<polygon points="225.0,183.0 225.0,193.3 233.0,189.3 233.0,179.0" style="fill:#373739" />
<polygon points="233.0,179.0 233.0,189.3 241.0,185.3 241.0,175.0" style="fill:#2f2f32" />
<polygon points="241.0,175.0 241.0,185.3 249.0,181.3 249.0,171.0" style="fill:#454545" />
<polygon points="249.0,171.0 249.0,181.3 257.0,177.3 257.0,167.0" style="fill:#353536" />
<polygon points="129.0,241.3 129.0,251.6 137.0,247.6 137.0,237.3" style="fill:#2d2d2f" />
<polygon points="137.0,237.3 137.0,247.6 145.0,243.6 145.0,233.3" style="fill:#4c4c4d" />
<polygon points="145.0,233.3 145.0,243.6 153.0,239.6 153.0,229.3" style="fill:#343435" />
<polygon points="153.0,229.3 153.0,239.6 161.0,235.6 161.0,225.3" style="fill:#37373a" />
<polygon points="161.0,225.3 161.0,235.6 169.0,231.6 169.0,221.3" style="fill:#2f2f32" />
<polygon points="169.0,221.3 169.0,231.6 177.0,227.6 177.0,217.3" style="fill:#37373a" />
<polygon points="177.0,217.3 177.0,227.6 185.0,223.6 185.0,213.3" style="fill:#2c2c2d" />
<polygon points="185.0,213.3 185.0,223.6 193.0,219.6 193.0,209.3" style="fill:#454646" />
<polygon points="193.0,209.3 193.0,219.6 201.0,215.6 201.0,205.3" style="fill:#363638" />
<polygon points="201.0,205.3 201.0,215.6 209.0,211.6 209.0,201.3" style="fill:#323235" />
<polygon points="209.0,201.3 209.0,211.6 217.0,207.6 217.0,197.3" style="fill:#353535" />
<polygon points="217.0,197.3 217.0,207.6 225.0,203.6 225.0,193.3" style="fill:#393839" />
<polygon points="225.0,193.3 225.0,203.6 233.0,199.6 233.0,189.3" style="fill:#454543" />
<polygon points="233.0,189.3 233.0,199.6 241.0,195.6 241.0,185.3" style="fill:#40403c" />
<polygon points="241.0,185.3 241.0,195.6 249.0,191.6 249.0,181.3" style="fill:#30302c" />
<polygon points="249.0,181.3 249.0,191.6 257.0,187.6 257.0,177.3" style="fill:#353536" />
<polygon points="129.0,251.6 129.0,261.9 137.0,257.9 137.0,247.6" style="fill:#484940" />
<polygon points="137.0,247.6 137.0,257.9 145.0,253.9 145.0,243.6" style="fill:#292924" />
<polygon points="145.0,243.6 145.0,253.9 153.0,249.9 153.0,239.6" style="fill:#454542" />
<polygon points="153.0,239.6 153.0,249.9 161.0,245.9 161.0,235.6" style="fill:#404044" />
<polygon points="161.0,235.6 161.0,245.9 169.0,241.9 169.0,231.6" style="fill:#393939" />
<polygon points="169.0,231.6 169.0,241.9 177.0,237.9 177.0,227.6" style="fill:#383738" />
<polygon points="177.0,227.6 177.0,237.9 185.0,233.9 185.0,223.6" style="fill:#363634" />
<polygon points="185.0,223.6 185.0,233.9 193.0,229.9 193.0,219.6" style="fill:#414141" />
<polygon points="193.0,219.6 193.0,229.9 201.0,225.9 201.0,215.6" style="fill:#3f3f3f" />
<polygon points="201.0,215.6 201.0,225.9 209.0,221.9 209.0,211.6" style="fill:#40403f" />
<polygon points="209.0,211.6 209.0,221.9 217.0,217.9 217.0,207.6" style="fill:#353637" />
<polygon points="217.0,207.6 217.0,217.9 225.0,213.9 225.0,203.6" style="fill:#333335" />
<polygon points="225.0,203.6 225.0,213.9 233.0,209.9 233.0,199.6" style="fill:#363637" />
<polygon points="233.0,199.6 233.0,209.9 241.0,205.9 241.0,195.6" style="fill:#373738" />
<polygon points="241.0,195.6 241.0,205.9 249.0,201.9 249.0,191.6" style="fill:#444443" />
<polygon points="249.0,191.6 249.0,201.9 257.0,197.9 257.0,187.6" style="fill:#2c2c2c" />
<polygon points="129.0,261.90002 129.0,272.2 137.0,268.2 137.0,257.90002" style="fill:#4a4a4a" />
<polygon points="137.0,257.90002 137.0,268.2 145.0,264.2 145.0,253.90002" style="fill:#36363a" />
<polygon points="145.0,253.90002 145.0,264.2 153.0,260.2 153.0,249.90002" style="fill:#282829" />
<polygon points="153.0,249.90002 153.0,260.2 161.0,256.2 161.0,245.90002" style="fill:#373737" />
<polygon points="161.0,245.90002 161.0,256.2 169.0,252.20001 169.0,241.90002" style="fill:#373736" />
<polygon points="169.0,241.90002 169.0,252.20001 177.0,248.20001 177.0,237.90002" style="fill:#373738" />
<polygon points="177.0,237.90002 177.0,248.20001 185.0,244.20001 185.0,233.90002" style="fill:#343535" />
<polygon points="185.0,233.90002 185.0,244.20001 193.0,240.20001 193.0,229.90002" style="fill:#2d2d2d" />
<polygon points="193.0,229.90002 193.0,240.20001 201.0,236.20001 201.0,225.90002" style="fill:#2f2f32" />
<polygon points="201.0,225.90002 201.0,236.20001 209.0,232.20001 209.0,221.90002" style="fill:#383839" />
<polygon points="209.0,221.90002 209.0,232.20001 217.0,228.20001 217.0,217.90002" style="fill:#2e2e31" />
<polygon points="217.0,217.90002 217.0,228.20001 225.0,224.20001 225.0,213.90002" style="fill:#393a3a" />
<polygon points="225.0,213.90002 225.0,224.20001 233.0,220.20001 233.0,209.90002" style="fill:#323231" />
<polygon points="233.0,209.90002 233.0,220.20001 241.0,216.20001 241.0,205.90002" style="fill:#2a2a2a" />
<polygon points="241.0,205.90002 241.0,216.20001 249.0,212.20001 249.0,201.90002" style="fill:#323232" />
<polygon points="249.0,201.90002 249.0,212.20001 257.0,208.20001 257.0,197.90002" style="fill:#252527" />
<polygon points="129.0,272.2 129.0,282.5 137.0,278.5 137.0,268.2" style="fill:#373735" />
<polygon points="137.0,268.2 137.0,278.5 145.0,274.5 145.0,264.2" style="fill:#353532" />
<polygon points="145.0,264.2 145.0,274.5 153.0,270.5 153.0,260.2" style="fill:#343433" />
<polygon points="153.0,260.2 153.0,270.5 161.0,266.5 161.0,256.2" style="fill:#313134" />
<polygon points="161.0,256.2 161.0,266.5 169.0,262.5 169.0,252.20001" style="fill:#2c2c2b" />
<polygon points="169.0,252.20001 169.0,262.5 177.0,258.5 177.0,248.20001" style="fill:#2a2a2d" />
<polygon points="177.0,248.20001 177.0,258.5 185.0,254.5 185.0,244.20001" style="fill:#252522" />
<polygon points="185.0,244.20001 185.0,254.5 193.0,250.5 193.0,240.20001" style="fill:#494949" />
<polygon points="193.0,240.20001 193.0,250.5 201.0,246.5 201.0,236.20001" style="fill:#51514f" />
<polygon points="201.0,236.20001 201.0,246.5 209.0,242.5 209.0,232.20001" style="fill:#363637" />
<polygon points="209.0,232.20001 209.0,242.5 217.0,238.5 217.0,228.20001" style="fill:#2c2c2d" />
<polygon points="217.0,228.20001 217.0,238.5 225.0,234.5 225.0,224.20001" style="fill:#2d2d2d" />
<polygon points="225.0,224.20001 225.0,234.5 233.0,230.5 233.0,220.20001" style="fill:#444447" />
<polygon points="233.0,220.20001 233.0,230.5 241.0,226.5 241.0,216.20001" style="fill:#4a4a4a" />
<polygon points="241.0,216.20001 241.0,226.5 249.0,222.5 249.0,212.20001" style="fill:#2e2e31" />
<polygon points="249.0,212.20001 249.0,222.5 257.0,218.5 257.0,208.20001" style="fill:#47474a" />
<polygon points="129.0,282.5 129.0,292.8 137.0,288.8 137.0,278.5" style="fill:#3c3c3c" />
<polygon points="137.0,278.5 137.0,288.8 145.0,284.8 145.0,274.5" style="fill:#3e3e3f" />
<polygon points="145.0,274.5 145.0,284.8 153.0,280.8 153.0,270.5" style="fill:#2d2d2e" />
<polygon points="153.0,270.5 153.0,280.8 161.0,276.8 161.0,266.5" style="fill:#4a4a4a" />
<polygon points="161.0,266.5 161.0,276.8 169.0,272.8 169.0,262.5" style="fill:#4a4a42" />
<polygon points="169.0,262.5 169.0,272.8 177.0,268.8 177.0,258.5" style="fill:#2c2c29" />
<polygon points="177.0,258.5 177.0,268.8 185.0,264.8 185.0,254.5" style="fill:#484849" />
<polygon points="185.0,254.5 185.0,264.8 193.0,260.8 193.0,250.5" style="fill:#38383a" />
<polygon points="193.0,250.5 193.0,260.8 201.0,256.8 201.0,246.5" style="fill:#353537" />
<polygon points="201.0,246.5 201.0,256.8 209.0,252.79999 209.0,242.5" style="fill:#404041" />
<polygon points="209.0,242.5 209.0,252.79999 217.0,248.79999 217.0,238.5" style="fill:#4b4b49" />
<polygon points="217.0,238.5 217.0,248.79999 225.0,244.79999 225.0,234.5" style="fill:#383836" />
<polygon points="225.0,234.5 225.0,244.79999 233.0,240.79999 233.0,230.5" style="fill:#2f2f32" />
<polygon points="233.0,230.5 233.0,240.79999 241.0,236.79999 241.0,226.5" style="fill:#343534" />
<polygon points="241.0,226.5 241.0,236.79999 249.0,232.79999 249.0,222.5" style="fill:#2a2a27" />
<polygon points="249.0,222.5 249.0,232.79999 257.0,228.79999 257.0,218.5" style="fill:#333235" />
<polygon points="1.0,64.0 1.0,74.3 9.0,78.3 9.0,68.0" style="fill:#4d4d4c" />
<polygon points="9.0,68.0 9.0,78.3 17.0,82.3 17.0,72.0" style="fill:#4f4f4f" />
<polygon points="17.0,72.0 17.0,82.3 25.0,86.3 25.0,76.0" style="fill:#47474a" />
<polygon points="25.0,76.0 25.0,86.3 33.0,90.3 33.0,80.0" style="fill:#474747" />
<polygon points="33.0,80.0 33.0,90.3 41.0,94.3 41.0,84.0" style="fill:#515152" />
<polygon points="41.0,84.0 41.0,94.3 49.0,98.3 49.0,88.0" style="fill:#5e5e60" />
<polygon points="49.0,88.0 49.0,98.3 57.0,102.3 57.0,92.0" style="fill:#444443" />
<polygon points="57.0,92.0 57.0,102.3 65.0,106.3 65.0,96.0" style="fill:#505051" />
<polygon points="65.0,96.0 65.0,106.3 73.0,110.3 73.0,100.0" style="fill:#4d4d50" />
<polygon points="73.0,100.0 73.0,110.3 81.0,114.3 81.0,104.0" style="fill:#575759" />
<polygon points="81.0,104.0 81.0,114.3 89.0,118.3 89.0,108.0" style="fill:#444447" />
<polygon points="89.0,108.0 89.0,118.3 97.0,122.3 97.0,112.0" style="fill:#50504d" />
<polygon points="97.0,112.0 97.0,122.3 105.0,126.3 105.0,116.0" style="fill:#454540" />
<polygon points="105.0,116.0 105.0,126.3 113.0,130.3 113.0,120.0" style="fill:#3c3c3c" />
<polygon points="113.0,120.0 113.0,130.3 121.0,134.3 121.0,124.0" style="fill:#525355" />
<polygon points="121.0,124.0 121.0,134.3 129.0,138.3 129.0,128.0" style="fill:#636365" />
<polygon points="1.0,74.3 1.0,84.600006 9.0,88.600006 9.0,78.3" style="fill:#51514f" />
<polygon points="9.0,78.3 9.0,88.600006 17.0,92.600006 17.0,82.3" style="fill:#56564d" />
<polygon points="17.0,82.3 17.0,92.600006 25.0,96.600006 25.0,86.3" style="fill:#57574d" />
<polygon points="25.0,86.3 25.0,96.600006 33.0,100.600006 33.0,90.3" style="fill:#4c4c45" />
<polygon points="33.0,90.3 33.0,100.600006 41.0,104.600006 41.0,94.3" style="fill:#505051" />
<polygon points="41.0,94.3 41.0,104.600006 49.0,108.600006 49.0,98.3" style="fill:#535356" />
<polygon points="49.0,98.3 49.0,108.600006 57.0,112.600006 57.0,102.3" style="fill:#565658" />
<polygon points="57.0,102.3 57.0,112.600006 65.0,116.600006 65.0,106.3" style="fill:#414244" />
<polygon points="65.0,106.3 65.0,116.600006 73.0,120.600006 73.0,110.3" style="fill:#454547" />
<polygon points="73.0,110.3 73.0,120.600006 81.0,124.600006 81.0,114.3" style="fill:#656564" />
<polygon points="81.0,114.3 81.0,124.600006 89.0,128.6 89.0,118.3" style="fill:#414142" />
<polygon points="89.0,118.3 89.0,128.6 97.0,132.6 97.0,122.3" style="fill:#3e3e40" />
<polygon points="97.0,122.3 97.0,132.6 105.0,136.6 105.0,126.3" style="fill:#818279" />
<polygon points="105.0,126.3 105.0,136.6 113.0,140.6 113.0,130.3" style="fill:#7a7a7a" />
<polygon points="113.0,130.3 113.0,140.6 121.0,144.6 121.0,134.3" style="fill:#4f4f4c" />
<polygon points="121.0,134.3 121.0,144.6 129.0,148.6 129.0,138.3" style="fill:#4b4b48" />
<polygon points="1.0,84.6 1.0,94.9 9.0,98.9 9.0,88.6" style="fill:#505052" />
<polygon points="9.0,88.6 9.0,98.9 17.0,102.9 17.0,92.6" style="fill:#6a6a63" />
<polygon points="17.0,92.6 17.0,102.9 25.0,106.9 25.0,96.6" style="fill:#515150" />
<polygon points="25.0,96.6 25.0,106.9 33.0,110.9 33.0,100.6" style="fill:#6c6d6c" />
<polygon points="33.0,100.6 33.0,110.9 41.0,114.9 41.0,104.6" style="fill:#404045" />
<polygon points="41.0,104.6 41.0,114.9 49.0,118.9 49.0,108.6" style="fill:#424247" />
<polygon points="49.0,108.6 49.0,118.9 57.0,122.9 57.0,112.6" style="fill:#535354" />
<polygon points="57.0,112.6 57.0,122.9 65.0,126.9 65.0,116.6" style="fill:#5f5f5f" />
<polygon points="65.0,116.6 65.0,126.9 73.0,130.9 73.0,120.6" style="fill:#5e5f61" />
<polygon points="73.0,120.6 73.0,130.9 81.0,134.9 81.0,124.6" style="fill:#434344" />
<polygon points="81.0,124.6 81.0,134.9 89.0,138.9 89.0,128.6" style="fill:#515153" />
<polygon points="89.0,128.6 89.0,138.9 97.0,142.9 97.0,132.6" style="fill:#696969" />
<polygon points="97.0,132.6 97.0,142.9 105.0,146.9 105.0,136.6" style="fill:#4f4f56" />
<polygon points="105.0,136.6 105.0,146.9 113.0,150.9 113.0,140.6" style="fill:#565659" />
<polygon points="113.0,140.6 113.0,150.9 121.0,154.9 121.0,144.6" style="fill:#404045" />
<polygon points="121.0,144.6 121.0,154.9 129.0,158.9 129.0,148.6" style="fill:#50514f" />
<polygon points="1.0,94.9 1.0,105.200005 9.0,109.200005 9.0,98.9" style="fill:#47474b" />
<polygon points="9.0,98.9 9.0,109.200005 17.0,113.200005 17.0,102.9" style="fill:#4d4d51" />
<polygon points="17.0,102.9 17.0,113.200005 25.0,117.200005 25.0,106.9" style="fill:#3d3d3e" />
<polygon points="25.0,106.9 25.0,117.200005 33.0,121.200005 33.0,110.9" style="fill:#505051" />
<polygon points="33.0,110.9 33.0,121.200005 41.0,125.200005 41.0,114.9" style="fill:#4f4f53" />
<polygon points="41.0,114.9 41.0,125.200005 49.0,129.20001 49.0,118.9" style="fill:#515153" />
<polygon points="49.0,118.9 49.0,129.20001 57.0,133.20001 57.0,122.9" style="fill:#4b4b4d" />
<polygon points="57.0,122.9 57.0,133.20001 65.0,137.20001 65.0,126.9" style="fill:#454545" />
<polygon points="65.0,126.9 65.0,137.20001 73.0,141.20001 73.0,130.9" style="fill:#474747" />
<polygon points="73.0,130.9 73.0,141.20001 81.0,145.20001 81.0,134.9" style="fill:#6d6e6b" />
<polygon points="81.0,134.9 81.0,145.20001 89.0,149.20001 89.0,138.9" style="fill:#424242" />
<polygon points="89.0,138.9 89.0,149.20001 97.0,153.20001 97.0,142.9" style="fill:#51524f" />
<polygon points="97.0,142.9 97.0,153.20001 105.0,157.20001 105.0,146.9" style="fill:#46474a" />
<polygon points="105.0,146.9 105.0,157.20001 113.0,161.20001 113.0,150.9" style="fill:#575851" />
<polygon points="113.0,150.9 113.0,161.20001 121.0,165.20001 121.0,154.9" style="fill:#525251" />
<polygon points="121.0,154.9 121.0,165.20001 129.0,169.20001 129.0,158.9" style="fill:#50514f" />
<polygon points="1.0,105.2 1.0,115.5 9.0,119.5 9.0,109.2" style="fill:#3e3e3d" />
<polygon points="9.0,109.2 9.0,119.5 17.0,123.5 17.0,113.2" style="fill:#434242" />
<polygon points="17.0,113.2 17.0,123.5 25.0,127.5 25.0,117.2" style="fill:#696969" />
<polygon points="25.0,117.2 25.0,127.5 33.0,131.5 33.0,121.2" style="fill:#4e4e53" />
<polygon points="33.0,121.2 33.0,131.5 41.0,135.5 41.0,125.2" style="fill:#5b5b5e" />
<polygon points="41.0,125.2 41.0,135.5 49.0,139.5 49.0,129.2" style="fill:#4f4f4a" />
<polygon points="49.0,129.2 49.0,139.5 57.0,143.5 57.0,133.2" style="fill:#45453f" />
<polygon points="57.0,133.2 57.0,143.5 65.0,147.5 65.0,137.2" style="fill:#6e6f64" />
<polygon points="65.0,137.2 65.0,147.5 73.0,151.5 73.0,141.2" style="fill:#737369" />
<polygon points="73.0,141.2 73.0,151.5 81.0,155.5 81.0,145.2" style="fill:#4e4e48" />
<polygon points="81.0,145.2 81.0,155.5 89.0,159.5 89.0,149.2" style="fill:#535358" />
<polygon points="89.0,149.2 89.0,159.5 97.0,163.5 97.0,153.2" style="fill:#4d4d53" />
<polygon points="97.0,153.2 97.0,163.5 105.0,167.5 105.0,157.2" style="fill:#616164" />
<polygon points="105.0,157.2 105.0,167.5 113.0,171.5 113.0,161.2" style="fill:#4e4e57" />
<polygon points="113.0,161.2 113.0,171.5 121.0,175.5 121.0,165.2" style="fill:#424247" />
<polygon points="121.0,165.2 121.0,175.5 129.0,179.5 129.0,169.2" style="fill:#414145" />
<polygon points="1.0,115.5 1.0,125.8 9.0,129.8 9.0,119.5" style="fill:#7a7a76" />
<polygon points="9.0,119.5 9.0,129.8 17.0,133.8 17.0,123.5" style="fill:#666665" />
<polygon points="17.0,123.5 17.0,133.8 25.0,137.8 25.0,127.5" style="fill:#3e3e3e" />
<polygon points="25.0,127.5 25.0,137.8 33.0,141.8 33.0,131.5" style="fill:#525355" />
<polygon points="33.0,131.5 33.0,141.8 41.0,145.8 41.0,135.5" style="fill:#404141" />
<polygon points="41.0,135.5 41.0,145.8 49.0,149.8 49.0,139.5" style="fill:#5b5b5b" />
<polygon points="49.0,139.5 49.0,149.8 57.0,153.8 57.0,143.5" style="fill:#6c6c6c" />
<polygon points="57.0,143.5 57.0,153.8 65.0,157.8 65.0,147.5" style="fill:#515154" />
<polygon points="65.0,147.5 65.0,157.8 73.0,161.8 73.0,151.5" style="fill:#535357" />
<polygon points="73.0,151.5 73.0,161.8 81.0,165.8 81.0,155.5" style="fill:#4d4e52" />
<polygon points="81.0,155.5 81.0,165.8 89.0,169.8 89.0,159.5" style="fill:#4f4f4d" />
<polygon points="89.0,159.5 89.0,169.8 97.0,173.8 97.0,163.5" style="fill:#525351" />
<polygon points="97.0,163.5 97.0,173.8 105.0,177.8 105.0,167.5" style="fill:#424241" />
<polygon points="105.0,167.5 105.0,177.8 113.0,181.8 113.0,171.5" style="fill:#424242" />
<polygon points="113.0,171.5 113.0,181.8 121.0,185.8 121.0,175.5" style="fill:#696965" />
<polygon points="121.0,175.5 121.0,185.8 129.0,189.8 129.0,179.5" style="fill:#68686a" />
<polygon points="1.0,125.8 1.0,136.1 9.0,140.1 9.0,129.8" style="fill:#4d4d4f" />
<polygon points="9.0,129.8 9.0,140.1 17.0,144.1 17.0,133.8" style="fill:#3d3d42" />
<polygon points="17.0,133.8 17.0,144.1 25.0,148.1 25.0,137.8" style="fill:#525356" />
<polygon points="25.0,137.8 25.0,148.1 33.0,152.1 33.0,141.8" style="fill:#3e3e3f" />
<polygon points="33.0,141.8 33.0,152.1 41.0,156.1 41.0,145.8" style="fill:#676767" />
<polygon points="41.0,145.8 41.0,156.1 49.0,160.1 49.0,149.8" style="fill:#515154" />
<polygon points="49.0,149.8 49.0,160.1 57.0,164.1 57.0,153.8" style="fill:#535358" />
<polygon points="57.0,153.8 57.0,164.1 65.0,168.1 65.0,157.8" style="fill:#525355" />
<polygon points="65.0,157.8 65.0,168.1 73.0,172.1 73.0,161.8" style="fill:#606065" />
<polygon points="73.0,161.8 73.0,172.1 81.0,176.1 81.0,165.8" style="fill:#5e5e66" />
<polygon points="81.0,165.8 81.0,176.1 89.0,180.1 89.0,169.8" style="fill:#424244" />
<polygon points="89.0,169.8 89.0,180.1 97.0,184.1 97.0,173.8" style="fill:#3f3f42" />
<polygon points="97.0,173.8 97.0,184.1 105.0,188.1 105.0,177.8" style="fill:#696964" />
<polygon points="105.0,177.8 105.0,188.1 113.0,192.1 113.0,181.8" style="fill:#6a6961" />
<polygon points="113.0,181.8 113.0,192.1 121.0,196.1 121.0,185.8" style="fill:#4d4d4f" />
<polygon points="121.0,185.8 121.0,196.1 129.0,200.1 129.0,189.8" style="fill:#4f4f53" />
<polygon points="1.0,136.1 1.0,146.40001 9.0,150.40001 9.0,140.1" style="fill:#525355" />
<polygon points="9.0,140.1 9.0,150.40001 17.0,154.40001 17.0,144.1" style="fill:#4f4f53" />
<polygon points="17.0,144.1 17.0,154.40001 25.0,158.40001 25.0,148.1" style="fill:#525256" />
<polygon points="25.0,148.1 25.0,158.40001 33.0,162.40001 33.0,152.1" style="fill:#444543" />
<polygon points="33.0,152.1 33.0,162.40001 41.0,166.40001 41.0,156.1" style="fill:#5f5f5f" />
<polygon points="41.0,156.1 41.0,166.40001 49.0,170.40001 49.0,160.1" style="fill:#515153" />
<polygon points="49.0,160.1 49.0,170.40001 57.0,174.40001 57.0,164.1" style="fill:#52534f" />
<polygon points="57.0,164.1 57.0,174.40001 65.0,178.40001 65.0,168.1" style="fill:#484841" />
<polygon points="65.0,168.1 65.0,178.40001 73.0,182.40001 73.0,172.1" style="fill:#45453c" />
<polygon points="73.0,172.1 73.0,182.40001 81.0,186.40001 81.0,176.1" style="fill:#424239" />
<polygon points="81.0,176.1 81.0,186.40001 89.0,190.40001 89.0,180.1" style="fill:#56574d" />
<polygon points="89.0,180.1 89.0,190.40001 97.0,194.40001 97.0,184.1" style="fill:#4b4b4b" />
<polygon points="97.0,184.1 97.0,194.40001 105.0,198.40001 105.0,188.1" style="fill:#47474b" />
<polygon points="105.0,188.1 105.0,198.40001 113.0,202.40001 113.0,192.1" style="fill:#424246" />
<polygon points="113.0,192.1 113.0,202.40001 121.0,206.40001 121.0,196.1" style="fill:#56564f" />
<polygon points="121.0,196.1 121.0,206.40001 129.0,210.40001 129.0,200.1" style="fill:#60605b" />
<polygon points="1.0,146.4 1.0,156.7 9.0,160.7 9.0,150.4" style="fill:#424242" />
<polygon points="9.0,150.4 9.0,160.7 17.0,164.7 17.0,154.4" style="fill:#4d4e4f" />
<polygon points="17.0,154.4 17.0,164.7 25.0,168.7 25.0,158.4" style="fill:#686863" />
<polygon points="25.0,158.4 25.0,168.7 33.0,172.7 33.0,162.4" style="fill:#525352" />
<polygon points="33.0,162.4 33.0,172.7 41.0,176.7 41.0,166.4" style="fill:#40403e" />
<polygon points="41.0,166.4 41.0,176.7 49.0,180.7 49.0,170.4" style="fill:#474748" />
<polygon points="49.0,170.4 49.0,180.7 57.0,184.7 57.0,174.4" style="fill:#3e3e3b" />
<polygon points="57.0,174.4 57.0,184.7 65.0,188.7 65.0,178.4" style="fill:#6c6c67" />
<polygon points="65.0,178.4 65.0,188.7 73.0,192.7 73.0,182.4" style="fill:#6d6e68" />
<polygon points="73.0,182.4 73.0,192.7 81.0,196.7 81.0,186.4" style="fill:#5a5a5d" />
<polygon points="81.0,186.4 81.0,196.7 89.0,200.7 89.0,190.4" style="fill:#50504c" />
<polygon points="89.0,190.4 89.0,200.7 97.0,204.7 97.0,194.4" style="fill:#424244" />
<polygon points="97.0,194.4 97.0,204.7 105.0,208.7 105.0,198.4" style="fill:#565658" />
<polygon points="105.0,198.4 105.0,208.7 113.0,212.7 113.0,202.4" style="fill:#4f4f50" />
<polygon points="113.0,202.4 113.0,212.7 121.0,216.7 121.0,206.4" style="fill:#4f4f51" />
<polygon points="121.0,206.4 121.0,216.7 129.0,220.7 129.0,210.4" style="fill:#404040" />
<polygon points="1.0,156.70001 1.0,167.00002 9.0,171.00002 9.0,160.70001" style="fill:#6c6d67" />
<polygon points="9.0,160.70001 9.0,171.00002 17.0,175.00002 17.0,164.70001" style="fill:#4f4f55" />
<polygon points="17.0,164.70001 17.0,175.00002 25.0,179.00002 25.0,168.70001" style="fill:#444445" />
<polygon points="25.0,168.70001 25.0,179.00002 33.0,183.00002 33.0,172.70001" style="fill:#424247" />
<polygon points="33.0,172.70001 33.0,183.00002 41.0,187.00002 41.0,176.70001" style="fill:#666669" />
<polygon points="41.0,176.70001 41.0,187.00002 49.0,191.00002 49.0,180.70001" style="fill:#6e6f6f" />
<polygon points="49.0,180.70001 49.0,191.00002 57.0,195.00002 57.0,184.70001" style="fill:#69696b" />
<polygon points="57.0,184.70001 57.0,195.00002 65.0,199.00002 65.0,188.70001" style="fill:#47474a" />
<polygon points="65.0,188.70001 65.0,199.00002 73.0,203.00002 73.0,192.70001" style="fill:#535357" />
<polygon points="73.0,192.70001 73.0,203.00002 81.0,207.00002 81.0,196.70001" style="fill:#4f5152" />
<polygon points="81.0,196.70001 81.0,207.00002 89.0,211.00002 89.0,200.70001" style="fill:#6b6c6b" />
<polygon points="89.0,200.70001 89.0,211.00002 97.0,215.00002 97.0,204.70001" style="fill:#515152" />
<polygon points="97.0,204.70001 97.0,215.00002 105.0,219.00002 105.0,208.70001" style="fill:#434343" />
<polygon points="105.0,208.70001 105.0,219.00002 113.0,223.00002 113.0,212.70001" style="fill:#585858" />
<polygon points="113.0,212.70001 113.0,223.00002 121.0,227.00002 121.0,216.70001" style="fill:#515151" />
<polygon points="121.0,216.70001 121.0,227.00002 129.0,231.00002 129.0,220.70001" style="fill:#5f5f60" />
<polygon points="1.0,167.0 1.0,177.3 9.0,181.3 9.0,171.0" style="fill:#565651" />
<polygon points="9.0,171.0 9.0,181.3 17.0,185.3 17.0,175.0" style="fill:#545456" />
<polygon points="17.0,175.0 17.0,185.3 25.0,189.3 25.0,179.0" style="fill:#5d5d62" />
<polygon points="25.0,179.0 25.0,189.3 33.0,193.3 33.0,183.0" style="fill:#656660" />
<polygon points="33.0,183.0 33.0,193.3 41.0,197.3 41.0,187.0" style="fill:#4d4d4d" />
<polygon points="41.0,187.0 41.0,197.3 49.0,201.3 49.0,191.0" style="fill:#50504d" />
<polygon points="49.0,191.0 49.0,201.3 57.0,205.3 57.0,195.0" style="fill:#5d5e62" />
<polygon points="57.0,195.0 57.0,205.3 65.0,209.3 65.0,199.0" style="fill:#4d4d4d" />
<polygon points="65.0,199.0 65.0,209.3 73.0,213.3 73.0,203.0" style="fill:#444447" />
<polygon points="73.0,203.0 73.0,213.3 81.0,217.3 81.0,207.0" style="fill:#474742" />
<polygon points="81.0,207.0 81.0,217.3 89.0,221.3 89.0,211.0" style="fill:#55554f" />
<polygon points="89.0,211.0 89.0,221.3 97.0,225.3 97.0,215.0" style="fill:#3d3d42" />
<polygon points="97.0,215.0 97.0,225.3 105.0,229.3 105.0,219.0" style="fill:#525256" />
<polygon points="105.0,219.0 105.0,229.3 113.0,233.3 113.0,223.0" style="fill:#47474a" />
<polygon points="113.0,223.0 113.0,233.3 121.0,237.3 121.0,227.0" style="fill:#686867" />
<polygon points="121.0,227.0 121.0,237.3 129.0,241.3 129.0,231.0" style="fill:#4f4f51" />
<polygon points="1.0,177.3 1.0,187.6 9.0,191.6 9.0,181.3" style="fill:#444447" />
<polygon points="9.0,181.3 9.0,191.6 17.0,195.6 17.0,185.3" style="fill:#727273" />
<polygon points="17.0,185.3 17.0,195.6 25.0,199.6 25.0,189.3" style="fill:#4d4d50" />
<polygon points="25.0,189.3 25.0,199.6 33.0,203.6 33.0,193.3" style="fill:#525256" />
<polygon points="33.0,193.3 33.0,203.6 41.0,207.6 41.0,197.3" style="fill:#47474c" />
<polygon points="41.0,197.3 41.0,207.6 49.0,211.6 49.0,201.3" style="fill:#525258" />
<polygon points="49.0,201.3 49.0,211.6 57.0,215.6 57.0,205.3" style="fill:#414143" />
<polygon points="57.0,205.3 57.0,215.6 65.0,219.6 65.0,209.3" style="fill:#686969" />
<polygon points="65.0,209.3 65.0,219.6 73.0,223.6 73.0,213.3" style="fill:#515154" />
<polygon points="73.0,213.3 73.0,223.6 81.0,227.6 81.0,217.3" style="fill:#4c4c4f" />
<polygon points="81.0,217.3 81.0,227.6 89.0,231.6 89.0,221.3" style="fill:#4f4f50" />
<polygon points="89.0,221.3 89.0,231.6 97.0,235.6 97.0,225.3" style="fill:#555456" />
<polygon points="97.0,225.3 97.0,235.6 105.0,239.6 105.0,229.3" style="fill:#676864" />
<polygon points="105.0,229.3 105.0,239.6 113.0,243.6 113.0,233.3" style="fill:#60605b" />
<polygon points="113.0,233.3 113.0,243.6 121.0,247.6 121.0,237.3" style="fill:#484841" />
<polygon points="121.0,237.3 121.0,247.6 129.0,251.6 129.0,241.3" style="fill:#4f4f51" />
<polygon points="1.0,187.6 1.0,197.90001 9.0,201.90001 9.0,191.6" style="fill:#6c6d60" />
<polygon points="9.0,191.6 9.0,201.90001 17.0,205.90001 17.0,195.6" style="fill:#3d3d36" />
<polygon points="17.0,195.6 17.0,205.90001 25.0,209.90001 25.0,199.6" style="fill:#686863" />
<polygon points="25.0,199.6 25.0,209.90001 33.0,213.90001 33.0,203.6" style="fill:#5f5f66" />
<polygon points="33.0,203.6 33.0,213.90001 41.0,217.90001 41.0,207.6" style="fill:#555555" />
<polygon points="41.0,207.6 41.0,217.90001 49.0,221.90001 49.0,211.6" style="fill:#535354" />
<polygon points="49.0,211.6 49.0,221.90001 57.0,225.90001 57.0,215.6" style="fill:#51514e" />
<polygon points="57.0,215.6 57.0,225.90001 65.0,229.90001 65.0,219.6" style="fill:#626262" />
<polygon points="65.0,219.6 65.0,229.90001 73.0,233.90001 73.0,223.6" style="fill:#5e5e5e" />
<polygon points="73.0,223.6 73.0,233.90001 81.0,237.90001 81.0,227.6" style="fill:#60605f" />
<polygon points="81.0,227.6 81.0,237.90001 89.0,241.90001 89.0,231.6" style="fill:#505152" />
<polygon points="89.0,231.6 89.0,241.90001 97.0,245.90001 97.0,235.6" style="fill:#4d4d4f" />
<polygon points="97.0,235.6 97.0,245.90001 105.0,249.90001 105.0,239.6" style="fill:#515153" />
<polygon points="105.0,239.6 105.0,249.90001 113.0,253.90001 113.0,243.6" style="fill:#525253" />
<polygon points="113.0,243.6 113.0,253.90001 121.0,257.90002 121.0,247.6" style="fill:#656564" />
<polygon points="121.0,247.6 121.0,257.90002 129.0,261.90002 129.0,251.6" style="fill:#424242" />
<polygon points="1.0,197.90001 1.0,208.20001 9.0,212.20001 9.0,201.90001" style="fill:#6f6f6f" />
<polygon points="9.0,201.90001 9.0,212.20001 17.0,216.20001 17.0,205.90001" style="fill:#515157" />
<polygon points="17.0,205.90001 17.0,216.20001 25.0,220.20001 25.0,209.90001" style="fill:#3c3c3e" />
<polygon points="25.0,209.90001 25.0,220.20001 33.0,224.20001 33.0,213.90001" style="fill:#525252" />
<polygon points="33.0,213.90001 33.0,224.20001 41.0,228.20001 41.0,217.90001" style="fill:#535251" />
<polygon points="41.0,217.90001 41.0,228.20001 49.0,232.20001 49.0,221.90001" style="fill:#535354" />
<polygon points="49.0,221.90001 49.0,232.20001 57.0,236.20001 57.0,225.90001" style="fill:#4d4f50" />
<polygon points="57.0,225.90001 57.0,236.20001 65.0,240.20001 65.0,229.90001" style="fill:#444444" />
<polygon points="65.0,229.90001 65.0,240.20001 73.0,244.20001 73.0,233.90001" style="fill:#47474a" />
<polygon points="73.0,233.90001 73.0,244.20001 81.0,248.20001 81.0,237.90001" style="fill:#535355" />
<polygon points="81.0,237.90001 81.0,248.20001 89.0,252.20001 89.0,241.90001" style="fill:#454549" />
<polygon points="89.0,241.90001 89.0,252.20001 97.0,256.2 97.0,245.90001" style="fill:#565657" />
<polygon points="97.0,245.90001 97.0,256.2 105.0,260.2 105.0,249.90001" style="fill:#4b4b4a" />
<polygon points="105.0,249.90001 105.0,260.2 113.0,264.2 113.0,253.90001" style="fill:#3f3f3f" />
<polygon points="113.0,253.90001 113.0,264.2 121.0,268.2 121.0,257.90002" style="fill:#4c4c4c" />
<polygon points="121.0,257.90002 121.0,268.2 129.0,272.2 129.0,261.90002" style="fill:#38383b" />
<polygon points="1.0,208.2 1.0,218.5 9.0,222.5 9.0,212.2" style="fill:#52524f" />
<polygon points="9.0,212.2 9.0,222.5 17.0,226.5 17.0,216.2" style="fill:#4f4f4c" />
<polygon points="17.0,216.2 17.0,226.5 25.0,230.5 25.0,220.2" style="fill:#4d4d4d" />
<polygon points="25.0,220.2 25.0,230.5 33.0,234.5 33.0,224.2" style="fill:#4a4a4e" />
<polygon points="33.0,224.2 33.0,234.5 41.0,238.5 41.0,228.2" style="fill:#414140" />
<polygon points="41.0,228.2 41.0,238.5 49.0,242.5 49.0,232.2" style="fill:#3e3e43" />
<polygon points="49.0,232.2 49.0,242.5 57.0,246.5 57.0,236.2" style="fill:#373733" />
<polygon points="57.0,236.2 57.0,246.5 65.0,250.5 65.0,240.2" style="fill:#6d6d6e" />
<polygon points="65.0,240.2 65.0,250.5 73.0,254.5 73.0,244.2" style="fill:#7a7a77" />
<polygon points="73.0,244.2 73.0,254.5 81.0,258.5 81.0,248.2" style="fill:#515152" />
<polygon points="81.0,248.2 81.0,258.5 89.0,262.5 89.0,252.2" style="fill:#424243" />
<polygon points="89.0,252.2 89.0,262.5 97.0,266.5 97.0,256.2" style="fill:#434344" />
<polygon points="97.0,256.2 97.0,266.5 105.0,270.5 105.0,260.2" style="fill:#676769" />
<polygon points="105.0,260.2 105.0,270.5 113.0,274.5 113.0,264.2" style="fill:#6f6f6e" />
<polygon points="113.0,264.2 113.0,274.5 121.0,278.5 121.0,268.2" style="fill:#454549" />
<polygon points="121.0,268.2 121.0,278.5 129.0,282.5 129.0,272.2" style="fill:#6b6b6e" />
<polygon points="1.0,218.5 1.0,228.8 9.0,232.8 9.0,222.5" style="fill:#595959" />
<polygon points="9.0,222.5 9.0,232.8 17.0,236.8 17.0,226.5" style="fill:#5e5e5e" />
<polygon points="17.0,226.5 17.0,236.8 25.0,240.8 25.0,230.5" style="fill:#424245" />
<polygon points="25.0,230.5 25.0,240.8 33.0,244.8 33.0,234.5" style="fill:#6f6f6e" />
<polygon points="33.0,234.5 33.0,244.8 41.0,248.8 41.0,238.5" style="fill:#6f6f63" />
<polygon points="41.0,238.5 41.0,248.8 49.0,252.8 49.0,242.5" style="fill:#41423d" />
<polygon points="49.0,242.5 49.0,252.8 57.0,256.8 57.0,246.5" style="fill:#6c6c6e" />
<polygon points="57.0,246.5 57.0,256.8 65.0,260.8 65.0,250.5" style="fill:#535358" />
<polygon points="65.0,250.5 65.0,260.8 73.0,264.8 73.0,254.5" style="fill:#4f4f53" />
<polygon points="73.0,254.5 73.0,264.8 81.0,268.8 81.0,258.5" style="fill:#5f5f61" />
<polygon points="81.0,258.5 81.0,268.8 89.0,272.8 89.0,262.5" style="fill:#70706d" />
<polygon points="89.0,262.5 89.0,272.8 97.0,276.8 97.0,266.5" style="fill:#545351" />
<polygon points="97.0,266.5 97.0,276.8 105.0,280.8 105.0,270.5" style="fill:#47474c" />
<polygon points="105.0,270.5 105.0,280.8 113.0,284.8 113.0,274.5" style="fill:#4e4f4d" />
<polygon points="113.0,274.5 113.0,284.8 121.0,288.8 121.0,278.5" style="fill:#40403a" />
<polygon points="121.0,278.5 121.0,288.8 129.0,292.8 129.0,282.5" style="fill:#4d4c4f" />
<polygon points="129.0,0.0 121.0,4.0 129.0,8.0 137.0,4.0" style="fill:#717170" />
<polygon points="137.0,4.0 129.0,8.0 137.0,12.0 145.0,8.0" style="fill:#757575" />
<polygon points="145.0,8.0 137.0,12.0 145.0,16.0 153.0,12.0" style="fill:#68686e" />
<polygon points="153.0,12.0 145.0,16.0 153.0,20.0 161.0,16.0" style="fill:#686868" />
<polygon points="161.0,16.0 153.0,20.0 161.0,24.0 169.0,20.0" style="fill:#78787a" />
<polygon points="169.0,20.0 161.0,24.0 169.0,28.0 177.0,24.0" style="fill:#8b8c8e" />
<polygon points="177.0,24.0 169.0,28.0 177.0,32.0 185.0,28.0" style="fill:#646464" />
<polygon points="185.0,28.0 177.0,32.0 185.0,36.0 193.0,32.0" style="fill:#767678" />
<polygon points="193.0,32.0 185.0,36.0 193.0,40.0 201.0,36.0" style="fill:#717176" />
<polygon points="201.0,36.0 193.0,40.0 201.0,44.0 209.0,40.0" style="fill:#808084" />
<polygon points="209.0,40.0 201.0,44.0 209.0,48.0 217.0,44.0" style="fill:#64646a" />
<polygon points="217.0,44.0 209.0,48.0 217.0,52.0 225.0,48.0" style="fill:#767672" />
<polygon points="225.0,48.0 217.0,52.0 225.0,56.0 233.0,52.0" style="fill:#65655f" />
<polygon points="233.0,52.0 225.0,56.0 233.0,60.0 241.0,56.0" style="fill:#595957" />
<polygon points="241.0,56.0 233.0,60.0 241.0,64.0 249.0,60.0" style="fill:#7a7b7e" />
<polygon points="249.0,60.0 241.0,64.0 249.0,68.0 257.0,64.0" style="fill:#929296" />
<polygon points="121.0,4.0 113.0,8.0 121.0,12.0 129.0,8.0" style="fill:#777874" />
<polygon points="129.0,8.0 121.0,12.0 129.0,16.0 137.0,12.0" style="fill:#7e7f71" />
<polygon points="137.0,12.0 129.0,16.0 137.0,20.0 145.0,16.0" style="fill:#808071" />
<polygon points="145.0,16.0 137.0,20.0 145.0,24.0 153.0,20.0" style="fill:#707065" />
<polygon points="153.0,20.0 145.0,24.0 153.0,28.0 161.0,24.0" style="fill:#767678" />
<polygon points="161.0,24.0 153.0,28.0 161.0,32.0 169.0,28.0" style="fill:#7c7b7e" />
<polygon points="169.0,28.0 161.0,32.0 169.0,36.0 177.0,32.0" style="fill:#7f7f81" />
<polygon points="177.0,32.0 169.0,36.0 177.0,40.0 185.0,36.0" style="fill:#616264" />
<polygon points="185.0,36.0 177.0,40.0 185.0,44.0 193.0,40.0" style="fill:#666669" />
<polygon points="193.0,40.0 185.0,44.0 193.0,48.0 201.0,44.0" style="fill:#969694" />
<polygon points="201.0,44.0 193.0,48.0 201.0,52.0 209.0,48.0" style="fill:#606063" />
<polygon points="209.0,48.0 201.0,52.0 209.0,56.0 217.0,52.0" style="fill:#5b5b5f" />
<polygon points="217.0,52.0 209.0,56.0 217.0,60.0 225.0,56.0" style="fill:#bfc1b3" />
<polygon points="225.0,56.0 217.0,60.0 225.0,64.0 233.0,60.0" style="fill:#b5b5b4" />
<polygon points="233.0,60.0 225.0,64.0 233.0,68.0 241.0,64.0" style="fill:#747570" />
<polygon points="241.0,64.0 233.0,68.0 241.0,72.0 249.0,68.0" style="fill:#6f6f6b" />
<polygon points="113.0,8.0 105.0,12.0 113.0,16.0 121.0,12.0" style="fill:#76767a" />
<polygon points="121.0,12.0 113.0,16.0 121.0,20.0 129.0,16.0" style="fill:#9d9d92" />
<polygon points="129.0,16.0 121.0,20.0 129.0,24.0 137.0,20.0" style="fill:#787876" />
<polygon points="137.0,20.0 129.0,24.0 137.0,28.0 145.0,24.0" style="fill:#9fa1a0" />
<polygon points="145.0,24.0 137.0,28.0 145.0,32.0 153.0,28.0" style="fill:#5e5e65" />
<polygon points="153.0,28.0 145.0,32.0 153.0,36.0 161.0,32.0" style="fill:#636368" />
<polygon points="161.0,32.0 153.0,36.0 161.0,40.0 169.0,36.0" style="fill:#7b7b7d" />
<polygon points="169.0,36.0 161.0,40.0 169.0,44.0 177.0,40.0" style="fill:#8c8c8c" />
<polygon points="177.0,40.0 169.0,44.0 177.0,48.0 185.0,44.0" style="fill:#8c8c8f" />
<polygon points="185.0,44.0 177.0,48.0 185.0,52.0 193.0,48.0" style="fill:#646464" />
<polygon points="193.0,48.0 185.0,52.0 193.0,56.0 201.0,52.0" style="fill:#78787c" />
<polygon points="201.0,52.0 193.0,56.0 201.0,60.0 209.0,56.0" style="fill:#9c9c9b" />
<polygon points="209.0,56.0 201.0,60.0 209.0,64.0 217.0,60.0" style="fill:#75757e" />
<polygon points="217.0,60.0 209.0,64.0 217.0,68.0 225.0,64.0" style="fill:#7e7f84" />
<polygon points="225.0,64.0 217.0,68.0 225.0,72.0 233.0,68.0" style="fill:#5e5e65" />
<polygon points="233.0,68.0 225.0,72.0 233.0,76.0 241.0,72.0" style="fill:#767775" />
<polygon points="105.0,12.0 97.0,16.0 105.0,20.0 113.0,16.0" style="fill:#69696f" />
<polygon points="113.0,16.0 105.0,20.0 113.0,24.0 121.0,20.0" style="fill:#727177" />
<polygon points="121.0,20.0 113.0,24.0 121.0,28.0 129.0,24.0" style="fill:#5a5a5b" />
<polygon points="129.0,24.0 121.0,28.0 129.0,32.0 137.0,28.0" style="fill:#767678" />
<polygon points="137.0,28.0 129.0,32.0 137.0,36.0 145.0,32.0" style="fill:#75757b" />
<polygon points="145.0,32.0 137.0,36.0 145.0,40.0 153.0,36.0" style="fill:#78787c" />
<polygon points="153.0,36.0 145.0,40.0 153.0,44.0 161.0,40.0" style="fill:#6f6f72" />
<polygon points="161.0,40.0 153.0,44.0 161.0,48.0 169.0,44.0" style="fill:#656665" />
<polygon points="169.0,44.0 161.0,48.0 169.0,52.0 177.0,48.0" style="fill:#686868" />
<polygon points="177.0,48.0 169.0,52.0 177.0,56.0 185.0,52.0" style="fill:#a1a29e" />
<polygon points="185.0,52.0 177.0,56.0 185.0,60.0 193.0,56.0" style="fill:#636362" />
<polygon points="193.0,56.0 185.0,60.0 193.0,64.0 201.0,60.0" style="fill:#787975" />
<polygon points="201.0,60.0 193.0,64.0 201.0,68.0 209.0,64.0" style="fill:#67686d" />
<polygon points="209.0,64.0 201.0,68.0 209.0,72.0 217.0,68.0" style="fill:#808178" />
<polygon points="217.0,68.0 209.0,72.0 217.0,76.0 225.0,72.0" style="fill:#797977" />
<polygon points="225.0,72.0 217.0,76.0 225.0,80.0 233.0,76.0" style="fill:#767775" />
<polygon points="97.0,16.0 89.0,20.0 97.0,24.0 105.0,20.0" style="fill:#5b5b5a" />
<polygon points="105.0,20.0 97.0,24.0 105.0,28.0 113.0,24.0" style="fill:#646363" />
<polygon points="113.0,24.0 105.0,28.0 113.0,32.0 121.0,28.0" style="fill:#9b9c9c" />
<polygon points="121.0,28.0 113.0,32.0 121.0,36.0 129.0,32.0" style="fill:#73737b" />
<polygon points="129.0,32.0 121.0,36.0 129.0,40.0 137.0,36.0" style="fill:#87878b" />
<polygon points="137.0,36.0 129.0,40.0 137.0,44.0 145.0,40.0" style="fill:#75756d" />
<polygon points="145.0,40.0 137.0,44.0 145.0,48.0 153.0,44.0" style="fill:#66665d" />
<polygon points="153.0,44.0 145.0,48.0 153.0,52.0 161.0,48.0" style="fill:#a3a595" />
<polygon points="161.0,48.0 153.0,52.0 161.0,56.0 169.0,52.0" style="fill:#a9a99c" />
<polygon points="169.0,52.0 161.0,56.0 169.0,60.0 177.0,56.0" style="fill:#73736b" />
<polygon points="177.0,56.0 169.0,60.0 177.0,64.0 185.0,60.0" style="fill:#7c7c81" />
<polygon points="185.0,60.0 177.0,64.0 185.0,68.0 193.0,64.0" style="fill:#72727b" />
<polygon points="193.0,64.0 185.0,68.0 193.0,72.0 201.0,68.0" style="fill:#8f8f95" />
<polygon points="201.0,68.0 193.0,72.0 201.0,76.0 209.0,72.0" style="fill:#737380" />
<polygon points="209.0,72.0 201.0,76.0 209.0,80.0 217.0,76.0" style="fill:#636369" />
<polygon points="217.0,76.0 209.0,80.0 217.0,84.0 225.0,80.0" style="fill:#616166" />
<polygon points="89.0,20.0 81.0,24.0 89.0,28.0 97.0,24.0" style="fill:#b3b3af" />
<polygon points="97.0,24.0 89.0,28.0 97.0,32.0 105.0,28.0" style="fill:#979796" />
<polygon points="105.0,28.0 97.0,32.0 105.0,36.0 113.0,32.0" style="fill:#5b5b5b" />
<polygon points="113.0,32.0 105.0,36.0 113.0,40.0 121.0,36.0" style="fill:#7a7b7e" />
<polygon points="121.0,36.0 113.0,40.0 121.0,44.0 129.0,40.0" style="fill:#5f6060" />
<polygon points="129.0,40.0 121.0,44.0 129.0,48.0 137.0,44.0" style="fill:#868787" />
<polygon points="137.0,44.0 129.0,48.0 137.0,52.0 145.0,48.0" style="fill:#9f9fa0" />
<polygon points="145.0,48.0 137.0,52.0 145.0,56.0 153.0,52.0" style="fill:#77777d" />
<polygon points="153.0,52.0 145.0,56.0 153.0,60.0 161.0,56.0" style="fill:#7b7b80" />
<polygon points="161.0,56.0 153.0,60.0 161.0,64.0 169.0,60.0" style="fill:#72737a" />
<polygon points="169.0,60.0 161.0,64.0 169.0,68.0 177.0,64.0" style="fill:#747471" />
<polygon points="177.0,64.0 169.0,68.0 177.0,72.0 185.0,68.0" style="fill:#7a7b77" />
<polygon points="185.0,68.0 177.0,72.0 185.0,76.0 193.0,72.0" style="fill:#636361" />
<polygon points="193.0,72.0 185.0,76.0 193.0,80.0 201.0,76.0" style="fill:#626262" />
<polygon points="201.0,76.0 193.0,80.0 201.0,84.0 209.0,80.0" style="fill:#9c9c96" />
<polygon points="209.0,80.0 201.0,84.0 209.0,88.0 217.0,84.0" style="fill:#99999d" />
<polygon points="81.0,24.0 73.0,28.0 81.0,32.0 89.0,28.0" style="fill:#727274" />
<polygon points="89.0,28.0 81.0,32.0 89.0,36.0 97.0,32.0" style="fill:#5a5a62" />
<polygon points="97.0,32.0 89.0,36.0 97.0,40.0 105.0,36.0" style="fill:#797b7e" />
<polygon points="105.0,36.0 97.0,40.0 105.0,44.0 113.0,40.0" style="fill:#5c5c5d" />
<polygon points="113.0,40.0 105.0,44.0 113.0,48.0 121.0,44.0" style="fill:#999899" />
<polygon points="121.0,44.0 113.0,48.0 121.0,52.0 129.0,48.0" style="fill:#77777d" />
<polygon points="129.0,48.0 121.0,52.0 129.0,56.0 137.0,52.0" style="fill:#7c7c81" />
<polygon points="137.0,52.0 129.0,56.0 137.0,60.0 145.0,56.0" style="fill:#7a7b7e" />
<polygon points="145.0,56.0 137.0,60.0 145.0,64.0 153.0,60.0" style="fill:#8e8e96" />
<polygon points="153.0,60.0 145.0,64.0 153.0,68.0 161.0,64.0" style="fill:#8c8c97" />
<polygon points="161.0,64.0 153.0,68.0 161.0,72.0 169.0,68.0" style="fill:#636364" />
<polygon points="169.0,68.0 161.0,72.0 169.0,76.0 177.0,72.0" style="fill:#5d5d63" />
<polygon points="177.0,72.0 169.0,76.0 177.0,80.0 185.0,76.0" style="fill:#9a9b95" />
<polygon points="185.0,76.0 177.0,80.0 185.0,84.0 193.0,80.0" style="fill:#9d9c8f" />
<polygon points="193.0,80.0 185.0,84.0 193.0,88.0 201.0,84.0" style="fill:#717174" />
<polygon points="201.0,84.0 193.0,88.0 201.0,92.0 209.0,88.0" style="fill:#75757b" />
<polygon points="73.0,28.0 65.0,32.0 73.0,36.0 81.0,32.0" style="fill:#7a7b7e" />
<polygon points="81.0,32.0 73.0,36.0 81.0,40.0 89.0,36.0" style="fill:#75757b" />
<polygon points="89.0,36.0 81.0,40.0 89.0,44.0 97.0,40.0" style="fill:#79797e" />
<polygon points="97.0,40.0 89.0,44.0 97.0,48.0 105.0,44.0" style="fill:#646564" />
<polygon points="105.0,44.0 97.0,48.0 105.0,52.0 113.0,48.0" style="fill:#8c8c8c" />
<polygon points="113.0,48.0 105.0,52.0 113.0,56.0 121.0,52.0" style="fill:#78787c" />
<polygon points="121.0,52.0 113.0,56.0 121.0,60.0 129.0,56.0" style="fill:#7a7b75" />
<polygon points="129.0,56.0 121.0,60.0 129.0,64.0 137.0,60.0" style="fill:#6b6b61" />
<polygon points="137.0,60.0 129.0,64.0 137.0,68.0 145.0,64.0" style="fill:#666658" />
<polygon points="145.0,64.0 137.0,68.0 145.0,72.0 153.0,68.0" style="fill:#626254" />
<polygon points="153.0,68.0 145.0,72.0 153.0,76.0 161.0,72.0" style="fill:#7f8072" />
<polygon points="161.0,72.0 153.0,76.0 161.0,80.0 169.0,76.0" style="fill:#6f6f6f" />
<polygon points="169.0,76.0 161.0,80.0 169.0,84.0 177.0,80.0" style="fill:#69696f" />
<polygon points="177.0,80.0 169.0,84.0 177.0,88.0 185.0,84.0" style="fill:#626267" />
<polygon points="185.0,84.0 177.0,88.0 185.0,92.0 193.0,88.0" style="fill:#7f7f75" />
<polygon points="193.0,88.0 185.0,92.0 193.0,96.0 201.0,92.0" style="fill:#8e8e86" />
<polygon points="65.0,32.0 57.0,36.0 65.0,40.0 73.0,36.0" style="fill:#636362" />
<polygon points="73.0,36.0 65.0,40.0 73.0,44.0 81.0,40.0" style="fill:#727374" />
<polygon points="81.0,40.0 73.0,44.0 81.0,48.0 89.0,44.0" style="fill:#999992" />
<polygon points="89.0,44.0 81.0,48.0 89.0,52.0 97.0,48.0" style="fill:#7a7b79" />
<polygon points="97.0,48.0 89.0,52.0 97.0,56.0 105.0,52.0" style="fill:#5f5f5c" />
<polygon points="105.0,52.0 97.0,56.0 105.0,60.0 113.0,56.0" style="fill:#69696b" />
<polygon points="113.0,56.0 105.0,60.0 113.0,64.0 121.0,60.0" style="fill:#5c5c56" />
<polygon points="121.0,60.0 113.0,64.0 121.0,68.0 129.0,64.0" style="fill:#a0a098" />
<polygon points="129.0,64.0 121.0,68.0 129.0,72.0 137.0,68.0" style="fill:#a1a299" />
<polygon points="137.0,68.0 129.0,72.0 137.0,76.0 145.0,72.0" style="fill:#858589" />
<polygon points="145.0,72.0 137.0,76.0 145.0,80.0 153.0,76.0" style="fill:#767670" />
<polygon points="153.0,76.0 145.0,80.0 153.0,84.0 161.0,80.0" style="fill:#636364" />
<polygon points="161.0,80.0 153.0,84.0 161.0,88.0 169.0,84.0" style="fill:#7f7f81" />
<polygon points="169.0,84.0 161.0,88.0 169.0,92.0 177.0,88.0" style="fill:#747476" />
<polygon points="177.0,88.0 169.0,92.0 177.0,96.0 185.0,92.0" style="fill:#757577" />
<polygon points="185.0,92.0 177.0,96.0 185.0,100.0 193.0,96.0" style="fill:#5f5f5f" />
<polygon points="57.0,36.0 49.0,40.0 57.0,44.0 65.0,40.0" style="fill:#a0a199" />
<polygon points="65.0,40.0 57.0,44.0 65.0,48.0 73.0,44.0" style="fill:#74747e" />
<polygon points="73.0,44.0 65.0,48.0 73.0,52.0 81.0,48.0" style="fill:#646466" />
<polygon points="81.0,48.0 73.0,52.0 81.0,56.0 89.0,52.0" style="fill:#626268" />
<polygon points="89.0,52.0 81.0,56.0 89.0,60.0 97.0,56.0" style="fill:#97979b" />
<polygon points="97.0,56.0 89.0,60.0 97.0,64.0 105.0,60.0" style="fill:#a3a5a5" />
<polygon points="105.0,60.0 97.0,64.0 105.0,68.0 113.0,64.0" style="fill:#9b9b9e" />
<polygon points="113.0,64.0 105.0,68.0 113.0,72.0 121.0,68.0" style="fill:#68686e" />
<polygon points="121.0,68.0 113.0,72.0 121.0,76.0 129.0,72.0" style="fill:#7b7b80" />
<polygon points="129.0,72.0 121.0,76.0 129.0,80.0 137.0,76.0" style="fill:#757779" />
<polygon points="137.0,76.0 129.0,80.0 137.0,84.0 145.0,80.0" style="fill:#9e9f9e" />
<polygon points="145.0,80.0 137.0,84.0 145.0,88.0 153.0,84.0" style="fill:#78787a" />
<polygon points="153.0,84.0 145.0,88.0 153.0,92.0 161.0,88.0" style="fill:#646464" />
<polygon points="161.0,88.0 153.0,92.0 161.0,96.0 169.0,92.0" style="fill:#838381" />
<polygon points="169.0,92.0 161.0,96.0 169.0,100.0 177.0,96.0" style="fill:#777777" />
<polygon points="177.0,96.0 169.0,100.0 177.0,104.0 185.0,100.0" style="fill:#8c8d8e" />
<polygon points="49.0,40.0 41.0,44.0 49.0,48.0 57.0,44.0" style="fill:#7e7e77" />
<polygon points="57.0,44.0 49.0,48.0 57.0,52.0 65.0,48.0" style="fill:#7d7d7f" />
<polygon points="65.0,48.0 57.0,52.0 65.0,56.0 73.0,52.0" style="fill:#898990" />
<polygon points="73.0,52.0 65.0,56.0 73.0,60.0 81.0,56.0" style="fill:#96978e" />
<polygon points="81.0,56.0 73.0,60.0 81.0,64.0 89.0,60.0" style="fill:#727171" />
<polygon points="89.0,60.0 81.0,64.0 89.0,68.0 97.0,64.0" style="fill:#767671" />
<polygon points="97.0,64.0 89.0,68.0 97.0,72.0 105.0,68.0" style="fill:#898a90" />
<polygon points="105.0,68.0 97.0,72.0 105.0,76.0 113.0,72.0" style="fill:#727271" />
<polygon points="113.0,72.0 105.0,76.0 113.0,80.0 121.0,76.0" style="fill:#64646a" />
<polygon points="121.0,76.0 113.0,80.0 121.0,84.0 129.0,80.0" style="fill:#696963" />
<polygon points="129.0,80.0 121.0,84.0 129.0,88.0 137.0,84.0" style="fill:#7e7e75" />
<polygon points="137.0,84.0 129.0,88.0 137.0,92.0 145.0,88.0" style="fill:#5a5a62" />
<polygon points="145.0,88.0 137.0,92.0 145.0,96.0 153.0,92.0" style="fill:#79797e" />
<polygon points="153.0,92.0 145.0,96.0 153.0,100.0 161.0,96.0" style="fill:#68686e" />
<polygon points="161.0,96.0 153.0,100.0 161.0,104.0 169.0,100.0" style="fill:#999999" />
<polygon points="169.0,100.0 161.0,104.0 169.0,108.0 177.0,104.0" style="fill:#747478" />
<polygon points="41.0,44.0 33.0,48.0 41.0,52.0 49.0,48.0" style="fill:#646468" />
<polygon points="49.0,48.0 41.0,52.0 49.0,56.0 57.0,52.0" style="fill:#a8a8aa" />
<polygon points="57.0,52.0 49.0,56.0 57.0,60.0 65.0,56.0" style="fill:#727276" />
<polygon points="65.0,56.0 57.0,60.0 65.0,64.0 73.0,60.0" style="fill:#7a7a7f" />
<polygon points="73.0,60.0 65.0,64.0 73.0,68.0 81.0,64.0" style="fill:#686870" />
<polygon points="81.0,64.0 73.0,68.0 81.0,72.0 89.0,68.0" style="fill:#7a7a81" />
<polygon points="89.0,68.0 81.0,72.0 89.0,76.0 97.0,72.0" style="fill:#616164" />
<polygon points="97.0,72.0 89.0,76.0 97.0,80.0 105.0,76.0" style="fill:#999a9a" />
<polygon points="105.0,76.0 97.0,80.0 105.0,84.0 113.0,80.0" style="fill:#77777d" />
<polygon points="113.0,80.0 105.0,84.0 113.0,88.0 121.0,84.0" style="fill:#707075" />
<polygon points="121.0,84.0 113.0,88.0 121.0,92.0 129.0,88.0" style="fill:#747476" />
<polygon points="129.0,88.0 121.0,92.0 129.0,96.0 137.0,92.0" style="fill:#7e7d7e" />
<polygon points="137.0,92.0 129.0,96.0 137.0,100.0 145.0,96.0" style="fill:#999994" />
<polygon points="145.0,96.0 137.0,100.0 145.0,104.0 153.0,100.0" style="fill:#8e8e86" />
<polygon points="153.0,100.0 145.0,104.0 153.0,108.0 161.0,104.0" style="fill:#6b6b61" />
<polygon points="161.0,104.0 153.0,108.0 161.0,112.0 169.0,108.0" style="fill:#747478" />
<polygon points="33.0,48.0 25.0,52.0 33.0,56.0 41.0,52.0" style="fill:#a0a18e" />
<polygon points="41.0,52.0 33.0,56.0 41.0,60.0 49.0,56.0" style="fill:#5a5a50" />
<polygon points="49.0,56.0 41.0,60.0 49.0,64.0 57.0,60.0" style="fill:#999992" />
<polygon points="57.0,60.0 49.0,64.0 57.0,68.0 65.0,64.0" style="fill:#8d8d97" />
<polygon points="65.0,64.0 57.0,68.0 65.0,72.0 73.0,68.0" style="fill:#7e7e7e" />
<polygon points="73.0,68.0 65.0,72.0 73.0,76.0 81.0,72.0" style="fill:#7c7b7d" />
<polygon points="81.0,72.0 73.0,76.0 81.0,80.0 89.0,76.0" style="fill:#777773" />
<polygon points="89.0,76.0 81.0,80.0 89.0,84.0 97.0,80.0" style="fill:#909090" />
<polygon points="97.0,80.0 89.0,84.0 97.0,88.0 105.0,84.0" style="fill:#8c8c8c" />
<polygon points="105.0,84.0 97.0,88.0 105.0,92.0 113.0,88.0" style="fill:#8e8e8c" />
<polygon points="113.0,88.0 105.0,92.0 113.0,96.0 121.0,92.0" style="fill:#76777a" />
<polygon points="121.0,92.0 113.0,96.0 121.0,100.0 129.0,96.0" style="fill:#717174" />
<polygon points="129.0,96.0 121.0,100.0 129.0,104.0 137.0,100.0" style="fill:#77777b" />
<polygon points="137.0,100.0 129.0,104.0 137.0,108.0 145.0,104.0" style="fill:#7a7a7c" />
<polygon points="145.0,104.0 137.0,108.0 145.0,112.0 153.0,108.0" style="fill:#969694" />
<polygon points="153.0,108.0 145.0,112.0 153.0,116.0 161.0,112.0" style="fill:#626262" />
<polygon points="25.0,52.0 17.0,56.0 25.0,60.0 33.0,56.0" style="fill:#a5a5a5" />
<polygon points="33.0,56.0 25.0,60.0 33.0,64.0 41.0,60.0" style="fill:#777780" />
<polygon points="41.0,60.0 33.0,64.0 41.0,68.0 49.0,64.0" style="fill:#58595b" />
<polygon points="49.0,64.0 41.0,68.0 49.0,72.0 57.0,68.0" style="fill:#7a7a7a" />
<polygon points="57.0,68.0 49.0,72.0 57.0,76.0 65.0,72.0" style="fill:#7b7a77" />
<polygon points="65.0,72.0 57.0,76.0 65.0,80.0 73.0,76.0" style="fill:#7b7b7d" />
<polygon points="73.0,76.0 65.0,80.0 73.0,84.0 81.0,80.0" style="fill:#727476" />
<polygon points="81.0,80.0 73.0,84.0 81.0,88.0 89.0,84.0" style="fill:#646464" />
<polygon points="89.0,84.0 81.0,88.0 89.0,92.0 97.0,88.0" style="fill:#69696e" />
<polygon points="97.0,88.0 89.0,92.0 97.0,96.0 105.0,92.0" style="fill:#7c7c7e" />
<polygon points="105.0,92.0 97.0,96.0 105.0,100.0 113.0,96.0" style="fill:#66666c" />
<polygon points="113.0,96.0 105.0,100.0 113.0,104.0 121.0,100.0" style="fill:#7e7f80" />
<polygon points="121.0,100.0 113.0,104.0 121.0,108.0 129.0,104.0" style="fill:#6f6f6d" />
<polygon points="129.0,104.0 121.0,108.0 129.0,112.0 137.0,108.0" style="fill:#5d5d5d" />
<polygon points="137.0,108.0 129.0,112.0 137.0,116.0 145.0,112.0" style="fill:#707070" />
<polygon points="145.0,112.0 137.0,116.0 145.0,120.0 153.0,116.0" style="fill:#535356" />
<polygon points="17.0,56.0 9.0,60.0 17.0,64.0 25.0,60.0" style="fill:#797975" />
<polygon points="25.0,60.0 17.0,64.0 25.0,68.0 33.0,64.0" style="fill:#747570" />
<polygon points="33.0,64.0 25.0,68.0 33.0,72.0 41.0,68.0" style="fill:#727271" />
<polygon points="41.0,68.0 33.0,72.0 41.0,76.0 49.0,72.0" style="fill:#6d6d73" />
<polygon points="49.0,72.0 41.0,76.0 49.0,80.0 57.0,76.0" style="fill:#61615f" />
<polygon points="57.0,76.0 49.0,80.0 57.0,84.0 65.0,80.0" style="fill:#5c5c64" />
<polygon points="65.0,80.0 57.0,84.0 65.0,88.0 73.0,84.0" style="fill:#52524b" />
<polygon points="73.0,84.0 65.0,88.0 73.0,92.0 81.0,88.0" style="fill:#a1a1a2" />
<polygon points="81.0,88.0 73.0,92.0 81.0,96.0 89.0,92.0" style="fill:#b3b3b0" />
<polygon points="89.0,92.0 81.0,96.0 89.0,100.0 97.0,96.0" style="fill:#777779" />
<polygon points="97.0,96.0 89.0,100.0 97.0,104.0 105.0,100.0" style="fill:#626264" />
<polygon points="105.0,100.0 97.0,104.0 105.0,108.0 113.0,104.0" style="fill:#646464" />
<polygon points="113.0,104.0 105.0,108.0 113.0,112.0 121.0,108.0" style="fill:#98989c" />
<polygon points="121.0,108.0 113.0,112.0 121.0,116.0 129.0,112.0" style="fill:#a5a5a4" />
<polygon points="129.0,112.0 121.0,116.0 129.0,120.0 137.0,116.0" style="fill:#65656c" />
<polygon points="137.0,116.0 129.0,120.0 137.0,124.0 145.0,120.0" style="fill:#9e9ea3" />
<polygon points="9.0,60.0 1.0,64.0 9.0,68.0 17.0,64.0" style="fill:#848484" />
<polygon points="17.0,64.0 9.0,68.0 17.0,72.0 25.0,68.0" style="fill:#8a8a8c" />
<polygon points="25.0,68.0 17.0,72.0 25.0,76.0 33.0,72.0" style="fill:#636366" />
<polygon points="33.0,72.0 25.0,76.0 33.0,80.0 41.0,76.0" style="fill:#a5a5a4" />
<polygon points="41.0,76.0 33.0,80.0 41.0,84.0 49.0,80.0" style="fill:#a5a593" />
<polygon points="49.0,80.0 41.0,84.0 49.0,88.0 57.0,84.0" style="fill:#61625a" />
<polygon points="57.0,84.0 49.0,88.0 57.0,92.0 65.0,88.0" style="fill:#9f9fa2" />
<polygon points="65.0,88.0 57.0,92.0 65.0,96.0 73.0,92.0" style="fill:#7c7c81" />
<polygon points="73.0,92.0 65.0,96.0 73.0,100.0 81.0,96.0" style="fill:#75757b" />
<polygon points="81.0,96.0 73.0,100.0 81.0,104.0 89.0,100.0" style="fill:#8d8d8f" />
<polygon points="89.0,100.0 81.0,104.0 89.0,108.0 97.0,104.0" style="fill:#a6a6a1" />
<polygon points="97.0,104.0 89.0,108.0 97.0,112.0 105.0,108.0" style="fill:#7d7c77" />
<polygon points="105.0,108.0 97.0,112.0 105.0,116.0 113.0,112.0" style="fill:#686870" />
<polygon points="113.0,112.0 105.0,116.0 113.0,120.0 121.0,116.0" style="fill:#737472" />
<polygon points="121.0,116.0 113.0,120.0 121.0,124.0 129.0,120.0" style="fill:#5e5e56" />
<polygon points="129.0,120.0 121.0,124.0 129.0,128.0 137.0,124.0" style="fill:#717075" />
</svg>
